<svg xmlns="http://www.w3.org/2000/svg" width="215.6mm" height="197.28mm" viewBox="0 0 611.15 559.22">
  <defs>
    <style>
      .cls-1 {
        fill: #242422;
      }

      .cls-2 {
        fill: #b11b24;
      }

      .cls-3 {
        fill: none;
        stroke: #1d1d1b;
        stroke-miterlimit: 10;
        stroke-width: 4px;
      }
    </style>
  </defs>
  <title>ico</title>
  <g id="Capa_2" data-name="Capa 2">
    <g id="Capa_1-2" data-name="Capa 1">
      <g>
        <g>
          <path class="cls-1" d="M370.5,405.47l94.66,55.23Z"/>
          <polygon class="cls-1" points="263.21 342.89 609.15 141.08 609.15 544.69 480.76 469.78 465.16 460.7 370.5 405.47 263.21 342.89"/>
          <path class="cls-2" d="M407.63,190.94c-22.56-29.69-50.46-44.05-50.46-44.05L467.74,77.72c18.91,16.12,43,51,43,51Z"/>
          <path class="cls-2" d="M465.16,460.7l15.6,9.08S400.85,558.43,285.3,557c0,0-167.52,12.18-254.39-153.67,0,0-30.46-62.5-28.82-123.11,0,0-6.41-115.74,88.07-202.52,0,0,136.84-136.78,317.47-42.67L228.47,138.21s-92.79,34.62-94.66,142c0,0-1,138.45,151.49,151.47,0,0,36.41,3.56,85.2-26.24Z"/>
        </g>
        <g>
          <path class="cls-3" d="M480.76,469.78S400.85,558.43,285.3,557c0,0-167.52,12.18-254.39-153.67,0,0-30.46-62.5-28.82-123.11,0,0-6.41-115.74,88.07-202.52,0,0,136.84-136.78,317.47-42.67L228.47,138.21s-92.79,34.62-94.66,142c0,0-1,138.45,151.49,151.47,0,0,36.41,3.56,85.2-26.24l94.66,55.23"/>
          <polygon class="cls-3" points="480.76 469.78 609.15 544.69 609.15 141.08 263.21 342.89 370.5 405.47 465.16 460.7 480.76 469.78"/>
          <path class="cls-3" d="M357.17,146.89s27.9,14.36,50.46,44.05l103.1-62.19s-24.08-34.91-43-51Z"/>
        </g>
      </g>
    </g>
  </g>
</svg>
