<?xml version="1.0" encoding="utf-8"?>
<!-- Generator: Adobe Illustrator 24.0.1, SVG Export Plug-In . SVG Version: 6.00 Build 0)  -->
<svg version="1.1" id="Capa_1" xmlns="http://www.w3.org/2000/svg" xmlns:xlink="http://www.w3.org/1999/xlink" x="0px" y="0px"
	 viewBox="0 0 772.5 184.4" style="enable-background:new 0 0 772.5 184.4;" xml:space="preserve">
<style type="text/css">
	.st0{clip-path:url(#SVGID_2_);}
	.st1{clip-path:url(#SVGID_4_);}
	.st2{clip-path:url(#SVGID_6_);}
	.st3{clip-path:url(#SVGID_8_);}
	.st4{fill:#B11B24;}
	.st5{fill:none;stroke:#1D1D1B;stroke-width:1.28;stroke-miterlimit:9.9999;}
</style>
<title>logo</title>
<g id="Capa_2_1_">
	<g id="logo">
		<g id="assets">
			<path d="M45.9,156.3V124L0.1,47.3v109C0,157.1,0,158,0,158.8c0,12.7,10.3,23,23,23s23-10.3,23-23l0,0C46,158,46,157.1,45.9,156.3
				z"/>
			<path d="M91.3,92.6L44,13.8c-0.8-1.8-1.8-3.6-3-5.1l0,0C33.5-1.5,19.1-3.6,9,4S-3.3,25.9,4.3,36l67.1,111.8
				c6.5,11,20.7,14.6,31.7,8.1c3.2-1.9,5.9-4.5,7.9-7.7l16.7-25.6V32L91.3,92.6z"/>
			<path d="M159.4,0c-12.6,0-22.9,10.2-22.9,22.9v135.9c-0.3,12.6,9.8,23.1,22.4,23.4s23.1-9.8,23.4-22.4c0-0.3,0-0.6,0-1V22.9
				C182.3,10.2,172.1,0,159.4,0z"/>
			<path d="M381.7,152.2L381.7,152.2l-0.1-0.4c-0.7-2.2-1.7-4.2-3-6.1L313,14.4c-4.9-11.6-18.4-17.1-30-12.1s-17.1,18.4-12.1,30
				c0.3,0.8,0.7,1.6,1.1,2.3l44.4,89l-28.5,0.1c-0.4,0-0.7-0.1-1.1-0.1c-10,0.2-17.9,8.5-17.6,18.5c0.2,9.6,8,17.4,17.6,17.6
				c0.4,0,0.8,0,1.2-0.1h47.2l4.2,9.6h0.1c5.8,11.2,19.5,15.7,30.8,9.9C380,174.2,384.9,162.8,381.7,152.2L381.7,152.2z"/>
			<path d="M261,32.6l-57,113.9c-0.8,1.3-1.6,2.8-2.1,4.2l0,0c-4.5,11.8,1.5,25,13.4,29.5c10.6,4,22.6-0.4,28.1-10.3l0,0
				c0.3-0.6,0.6-1.1,0.8-1.7l42.7-84.8L261,32.6z"/>
			<path d="M423.7,0c-12.6,0-22.9,10.2-22.9,22.9c0,0,0,0,0,0v135.9c0,12.6,10.2,22.9,22.9,22.9s22.9-10.2,22.9-22.9V22.9
				C446.6,10.3,436.4,0,423.7,0C423.7,0,423.7,0,423.7,0z"/>
			<path d="M560.3,35.7L560.3,35.7c7.1-10.5,4.3-24.7-6.2-31.8c-9.2-6.2-21.6-4.9-29.3,3.2l0,0c-0.5,0.5-1,1.1-1.5,1.7l-68.6,78.8
				V157L556.7,39.9C558.1,38.6,559.3,37.2,560.3,35.7z"/>
			<path d="M557,143.1l-39.5-45.5l-30.4,35l34.9,39.9c0.7,1,1.5,1.9,2.4,2.7l0,0c9.1,8.8,23.6,8.5,32.4-0.6
				C565.2,165.8,565.3,152,557,143.1L557,143.1z"/>
			<g>
				<defs>
					<rect id="SVGID_1_" x="529" y="0" width="269" height="190.2"/>
				</defs>
				<clipPath id="SVGID_2_">
					<use xlink:href="#SVGID_1_"  style="overflow:visible;"/>
				</clipPath>
				<g class="st0">
					<g>
						<defs>
							<rect id="SVGID_3_" x="529" y="0" width="269" height="190.2"/>
						</defs>
						<clipPath id="SVGID_4_">
							<use xlink:href="#SVGID_3_"  style="overflow:visible;"/>
						</clipPath>
						<g class="st1">
							<g>
								<defs>
									<rect id="SVGID_5_" x="577.9" y="6.4" width="194" height="177.4"/>
								</defs>
								<clipPath id="SVGID_6_">
									<use xlink:href="#SVGID_5_"  style="overflow:visible;"/>
								</clipPath>
								<g class="st2">
									<g>
										<defs>
											<rect id="SVGID_7_" x="577.9" y="6.4" width="194" height="177.4"/>
										</defs>
										<clipPath id="SVGID_8_">
											<use xlink:href="#SVGID_7_"  style="overflow:visible;"/>
										</clipPath>
										<g class="st3">
											<polygon points="771.9,50.8 771.9,179.8 730.9,155.8 695.6,135.3 661.4,115.3 											"/>
											<path class="st4" d="M740.4,46.9l-32.9,19.9c-4.4-5.7-9.9-10.5-16.1-14.1l35.3-22.1C732.7,35.7,740.4,46.9,740.4,46.9"/>
											<path class="st4" d="M695.6,135.3l35.2,20.5c0,0-25.5,28.3-62.4,27.9c0,0-53.5,3.9-81.3-49.1c0,0-9.7-20-9.2-39.3
												c0,0-2-37,28.1-64.7c0,0,43.7-43.7,101.4-13.6l-57.2,32.9c0,0-29.6,11.1-30.3,45.4c0,0-0.3,44.2,48.4,48.4
												C668.4,143.7,680,144.8,695.6,135.3"/>
										</g>
									</g>
								</g>
							</g>
							<path class="st5" d="M730.9,155.8c0,0-25.5,28.3-62.4,27.9c0,0-53.5,3.9-81.3-49.1c0,0-9.7-20-9.2-39.3c0,0-2-37,28.1-64.7
								c0,0,43.7-43.7,101.4-13.6l-57.2,32.9c0,0-29.6,11.1-30.3,45.4c0,0-0.3,44.2,48.4,48.4c0,0,11.6,1.1,27.2-8.4"/>
							<polygon class="st5" points="730.9,155.8 771.9,179.8 771.9,50.8 661.4,115.3 695.6,135.3 							"/>
							<path class="st5" d="M691.4,52.7c6.3,3.6,11.8,8.3,16.1,14.1l32.9-19.9c0,0-7.7-11.1-13.7-16.3L691.4,52.7z"/>
						</g>
					</g>
				</g>
			</g>
		</g>
	</g>
</g>
</svg>
